<svg width="26" height="27" viewBox="0 0 26 27" fill="none" xmlns="http://www.w3.org/2000/svg">
<path d="M21.7876 8.11983V10.0734C21.7876 10.7566 21.4674 11.3971 20.9123 11.792L9.16978 20.3961C8.41186 20.9512 7.37638 20.9512 6.62913 20.3854L5.09193 19.2325C4.39805 18.7094 3.83228 17.5779 3.83228 16.7132V8.11983C3.83228 6.92423 4.75033 5.60053 5.8712 5.18421L11.7104 2.99583C12.3189 2.77165 13.301 2.77165 13.9095 2.99583L19.7487 5.18421C20.8696 5.60053 21.7876 6.92423 21.7876 8.11983Z" fill="#CEB0FA"/>
<path d="M20.0905 13.8629C20.795 13.3505 21.7878 13.8522 21.7878 14.7276V16.7345C21.7878 17.5992 21.222 18.72 20.5281 19.2431L14.6889 23.6092C14.1765 23.9828 13.4933 24.175 12.8101 24.175C12.1269 24.175 11.4437 23.9828 10.9313 23.5985L10.0453 22.9367C9.46882 22.5097 9.46882 21.645 10.0559 21.218L20.0905 13.8629Z" fill="#CEB0FA"/>
</svg>
